ffmpeg started on 2026-01-13 at 09:58:16
Report written to "D:\Convert\FFMetrics\reports\ssim_report-6.txt"
Log level: 32
Command line:
ffmpeg -hide_banner -nostdin -r 24000/1001 -i "F:\\Convert\\files\\[DC] Make Heroine ga Oosugiru - 07_Telegram_HEVC(108).mkv" -r 24000/1001 -i "F:\\Convert\\files\\[DC] Make Heroine ga Oosugiru - 07_Telegram.mp4" -lavfi "[0:v]settb=AVTB,setpts=PTS-STARTPTS,format=pix_fmts=yuv420p10le,fps=24000/1001,scale=1920:1080:flags=lanczos:param0=3:out_range=limited:out_color_matrix=bt709:out_chroma_loc=left,setsar=1/1,setdar=(1920/1080)*(1/1),colorspace=format=yuv420p10:range=tv:primaries=bt709:trc=bt709:space=bt709:fast=0[main];[1:v]settb=AVTB,setpts=PTS-STARTPTS,format=pix_fmts=yuv420p,fps=24000/1001,scale=1920:1080:flags=lanczos:param0=3:out_range=limited:out_color_matrix=bt709:out_chroma_loc=left,setsar=1.000,setdar=1.778,colorspace=format=yuv420p:range=tv:primaries=bt709:trc=bt709:space=bt709:fast=0[ref];[main][ref]ssim=eof_action=endall:stats_file='D\\:/Convert/FFMetrics/logs/ssim_logfile-6.txt'" -f null -
Input #0, matroska,webm, from 'F:\Convert\files\[DC] Make Heroine ga Oosugiru - 07_Telegram_HEVC(108).mkv':
  Metadata:
    COMPATIBLE_BRANDS: isomiso2avc1mp41
    MAJOR_BRAND     : isom
    MINOR_VERSION   : 512
    ENCODER         : Lavf61.7.100
  Duration: 00:24:06.79, start: -0.021000, bitrate: 1005 kb/s
  Stream #0:0: Video: hevc (Main 10), yuv420p10le(tv, bt709, progressive), 1920x1080 [SAR 1:1 DAR 16:9], 23.98 fps, 23.98 tbr, 1k tbn (default)
      Metadata:
        HANDLER_NAME    : VideoHandler
        VENDOR_ID       : [0][0][0][0]
        ENCODER         : Lavc61.19.100 libx265
        BPS             : 808166
        DURATION        : 00:24:06.569708333
        NUMBER_OF_FRAMES: 34683
        NUMBER_OF_BYTES : 146133540
        _STATISTICS_WRITING_APP: mkvpropedit v94.0 ('Initiate') 64-bit
        _STATISTICS_WRITING_DATE_UTC: 2026-01-12 13:24:07
        _STATISTICS_TAGS: BPS DURATION NUMBER_OF_FRAMES NUMBER_OF_BYTES
  Stream #0:1: Audio: aac (LC), 48000 Hz, stereo, fltp (default)
      Metadata:
        HANDLER_NAME    : SoundHandler
        VENDOR_ID       : [0][0][0][0]
        ENCODER         : Lavc61.19.100 aac
        BPS             : 193194
        DURATION        : 00:24:06.784000000
        NUMBER_OF_FRAMES: 67819
        NUMBER_OF_BYTES : 34938755
        _STATISTICS_WRITING_APP: mkvpropedit v94.0 ('Initiate') 64-bit
        _STATISTICS_WRITING_DATE_UTC: 2026-01-12 13:24:07
        _STATISTICS_TAGS: BPS DURATION NUMBER_OF_FRAMES NUMBER_OF_BYTES
Input #1, mov,mp4,m4a,3gp,3g2,mj2, from 'F:\Convert\files\[DC] Make Heroine ga Oosugiru - 07_Telegram.mp4':
  Metadata:
    major_brand     : isom
    minor_version   : 512
    compatible_brands: isomiso2avc1mp41
    encoder         : Lavf60.16.100
  Duration: 00:24:06.74, start: 0.000000, bitrate: 3764 kb/s
  Stream #1:0[0x1](und): Video: h264 (High) (avc1 / 0x31637661), yuv420p(tv, bt709, progressive), 1920x1080 [SAR 1:1 DAR 16:9], 3616 kb/s, 23.98 fps, 23.98 tbr, 24k tbn (default)
      Metadata:
        handler_name    : VideoHandler
        vendor_id       : [0][0][0][0]
        encoder         : Lavc60.31.102 h264_qsv
  Stream #1:1[0x2](und): Audio: aac (HE-AACv2) (mp4a / 0x6134706D), 48000 Hz, stereo, fltp, 144 kb/s (default)
      Metadata:
        handler_name    : SoundHandler
        vendor_id       : [0][0][0][0]
Stream mapping:
  Stream #0:0 (hevc) -> settb:default
  Stream #1:0 (h264) -> settb:default
  ssim:default -> Stream #0:0 (wrapped_avframe)
  Stream #0:1 -> #0:1 (aac (native) -> pcm_s16le (native))
Output #0, null, to 'pipe:':
  Metadata:
    COMPATIBLE_BRANDS: isomiso2avc1mp41
    MAJOR_BRAND     : isom
    MINOR_VERSION   : 512
    encoder         : Lavf61.7.100
  Stream #0:0: Video: wrapped_avframe, yuv420p10le(tv, bt709, progressive), 1920x1080 [SAR 1:1 DAR 16:9], q=2-31, 200 kb/s, 23.98 fps, 23.98 tbn
      Metadata:
        encoder         : Lavc61.19.100 wrapped_avframe
  Stream #0:1: Audio: pcm_s16le, 48000 Hz, stereo, s16, 1536 kb/s (default)
      Metadata:
        HANDLER_NAME    : SoundHandler
        VENDOR_ID       : [0][0][0][0]
        _STATISTICS_TAGS: BPS DURATION NUMBER_OF_FRAMES NUMBER_OF_BYTES
        BPS             : 193194
        DURATION        : 00:24:06.784000000
        NUMBER_OF_FRAMES: 67819
        NUMBER_OF_BYTES : 34938755
        _STATISTICS_WRITING_APP: mkvpropedit v94.0 ('Initiate') 64-bit
        _STATISTICS_WRITING_DATE_UTC: 2026-01-12 13:24:07
        encoder         : Lavc61.19.100 pcm_s16le
frame=  107 fps=0.0 q=-0.0 size=N/A time=00:00:04.46 bitrate=N/A speed=8.46x    frame=  270 fps=262 q=-0.0 size=N/A time=00:00:11.26 bitrate=N/A speed=10.9x    frame=  426 fps=274 q=-0.0 size=N/A time=00:00:17.76 bitrate=N/A speed=11.4x    frame=  622 fps=300 q=-0.0 size=N/A time=00:00:25.94 bitrate=N/A speed=12.5x    frame=  800 fps=309 q=-0.0 size=N/A time=00:00:33.36 bitrate=N/A speed=12.9x    frame=  949 fps=306 q=-0.0 size=N/A time=00:00:39.58 bitrate=N/A speed=12.7x    frame= 1098 fps=303 q=-0.0 size=N/A time=00:00:45.79 bitrate=N/A speed=12.7x    frame= 1252 fps=303 q=-0.0 size=N/A time=00:00:52.21 bitrate=N/A speed=12.6x    frame= 1410 fps=303 q=-0.0 size=N/A time=00:00:58.80 bitrate=N/A speed=12.6x    frame= 1542 fps=299 q=-0.0 size=N/A time=00:01:04.31 bitrate=N/A speed=12.5x    frame= 1680 fps=296 q=-0.0 size=N/A time=00:01:10.07 bitrate=N/A speed=12.3x    frame= 1855 fps=299 q=-0.0 size=N/A time=00:01:17.36 bitrate=N/A speed=12.5x    frame= 2004 fps=299 q=-0.0 size=N/A time=00:01:23.58 bitrate=N/A speed=12.5x    frame= 2091 fps=290 q=-0.0 size=N/A time=00:01:27.21 bitrate=N/A speed=12.1x    frame= 2205 fps=285 q=-0.0 size=N/A time=00:01:31.96 bitrate=N/A speed=11.9x    frame= 2346 fps=284 q=-0.0 size=N/A time=00:01:37.84 bitrate=N/A speed=11.9x    frame= 2468 fps=281 q=-0.0 size=N/A time=00:01:42.93 bitrate=N/A speed=11.7x    frame= 2598 fps=280 q=-0.0 size=N/A time=00:01:48.35 bitrate=N/A speed=11.7x    frame= 2746 fps=280 q=-0.0 size=N/A time=00:01:54.53 bitrate=N/A speed=11.7x    frame= 2894 fps=281 q=-0.0 size=N/A time=00:02:00.70 bitrate=N/A speed=11.7x    frame= 3041 fps=281 q=-0.0 size=N/A time=00:02:06.83 bitrate=N/A speed=11.7x    frame= 3203 fps=282 q=-0.0 size=N/A time=00:02:13.59 bitrate=N/A speed=11.8x    frame= 3368 fps=284 q=-0.0 size=N/A time=00:02:20.47 bitrate=N/A speed=11.8x    frame= 3533 fps=285 q=-0.0 size=N/A time=00:02:27.35 bitrate=N/A speed=11.9x    frame= 3722 fps=289 q=-0.0 size=N/A time=00:02:35.23 bitrate=N/A speed=  12x    frame= 3860 fps=288 q=-0.0 size=N/A time=00:02:40.99 bitrate=N/A speed=  12x    frame= 4051 fps=291 q=-0.0 size=N/A time=00:02:48.96 bitrate=N/A speed=12.1x    frame= 4226 fps=292 q=-0.0 size=N/A time=00:02:56.25 bitrate=N/A speed=12.2x    frame= 4413 fps=295 q=-0.0 size=N/A time=00:03:04.05 bitrate=N/A speed=12.3x    frame= 4589 fps=297 q=-0.0 size=N/A time=00:03:11.39 bitrate=N/A speed=12.4x    frame= 4775 fps=299 q=-0.0 size=N/A time=00:03:19.15 bitrate=N/A speed=12.5x    frame= 4941 fps=299 q=-0.0 size=N/A time=00:03:26.08 bitrate=N/A speed=12.5x    frame= 5120 fps=301 q=-0.0 size=N/A time=00:03:33.54 bitrate=N/A speed=12.6x    frame= 5310 fps=303 q=-0.0 size=N/A time=00:03:41.47 bitrate=N/A speed=12.6x    frame= 5495 fps=304 q=-0.0 size=N/A time=00:03:49.18 bitrate=N/A speed=12.7x    frame= 5672 fps=306 q=-0.0 size=N/A time=00:03:56.56 bitrate=N/A speed=12.7x    frame= 5859 fps=307 q=-0.0 size=N/A time=00:04:04.36 bitrate=N/A speed=12.8x    frame= 6012 fps=307 q=-0.0 size=N/A time=00:04:10.75 bitrate=N/A speed=12.8x    frame= 6195 fps=308 q=-0.0 size=N/A time=00:04:18.38 bitrate=N/A speed=12.8x    frame= 6378 fps=309 q=-0.0 size=N/A time=00:04:26.01 bitrate=N/A speed=12.9x    frame= 6557 fps=310 q=-0.0 size=N/A time=00:04:33.48 bitrate=N/A speed=12.9x    frame= 6735 fps=311 q=-0.0 size=N/A time=00:04:40.90 bitrate=N/A speed=  13x    frame= 6897 fps=311 q=-0.0 size=N/A time=00:04:47.66 bitrate=N/A speed=  13x    frame= 7058 fps=311 q=-0.0 size=N/A time=00:04:54.37 bitrate=N/A speed=  13x    frame= 7237 fps=312 q=-0.0 size=N/A time=00:05:01.84 bitrate=N/A speed=  13x    frame= 7407 fps=312 q=-0.0 size=N/A time=00:05:08.93 bitrate=N/A speed=  13x    frame= 7569 fps=312 q=-0.0 size=N/A time=00:05:15.69 bitrate=N/A speed=  13x    frame= 7719 fps=312 q=-0.0 size=N/A time=00:05:21.94 bitrate=N/A speed=  13x    frame= 7902 fps=313 q=-0.0 size=N/A time=00:05:29.57 bitrate=N/A speed=  13x    frame= 8078 fps=313 q=-0.0 size=N/A time=00:05:36.91 bitrate=N/A speed=13.1x    frame= 8256 fps=314 q=-0.0 size=N/A time=00:05:44.34 bitrate=N/A speed=13.1x    frame= 8426 fps=314 q=-0.0 size=N/A time=00:05:51.43 bitrate=N/A speed=13.1x    frame= 8594 fps=314 q=-0.0 size=N/A time=00:05:58.44 bitrate=N/A speed=13.1x    frame= 8769 fps=315 q=-0.0 size=N/A time=00:06:05.74 bitrate=N/A speed=13.1x    frame= 8942 fps=315 q=-0.0 size=N/A time=00:06:12.95 bitrate=N/A speed=13.1x    frame= 9137 fps=316 q=-0.0 size=N/A time=00:06:21.08 bitrate=N/A speed=13.2x    frame= 9308 fps=316 q=-0.0 size=N/A time=00:06:28.22 bitrate=N/A speed=13.2x    frame= 9491 fps=317 q=-0.0 size=N/A time=00:06:35.85 bitrate=N/A speed=13.2x    frame= 9672 fps=318 q=-0.0 size=N/A time=00:06:43.40 bitrate=N/A speed=13.2x    frame= 9855 fps=318 q=-0.0 size=N/A time=00:06:51.03 bitrate=N/A speed=13.3x    frame=10016 fps=318 q=-0.0 size=N/A time=00:06:57.75 bitrate=N/A speed=13.3x    frame=10195 fps=319 q=-0.0 size=N/A time=00:07:05.21 bitrate=N/A speed=13.3x    frame=10366 fps=319 q=-0.0 size=N/A time=00:07:12.34 bitrate=N/A speed=13.3x    frame=10544 fps=319 q=-0.0 size=N/A time=00:07:19.77 bitrate=N/A speed=13.3x    frame=10715 fps=319 q=-0.0 size=N/A time=00:07:26.90 bitrate=N/A speed=13.3x    frame=10893 fps=320 q=-0.0 size=N/A time=00:07:34.32 bitrate=N/A speed=13.3x    frame=11062 fps=320 q=-0.0 size=N/A time=00:07:41.37 bitrate=N/A speed=13.3x    frame=11232 fps=320 q=-0.0 size=N/A time=00:07:48.46 bitrate=N/A speed=13.4x    frame=11397 fps=320 q=-0.0 size=N/A time=00:07:55.34 bitrate=N/A speed=13.4x    frame=11572 fps=320 q=-0.0 size=N/A time=00:08:02.64 bitrate=N/A speed=13.4x    frame=11753 fps=321 q=-0.0 size=N/A time=00:08:10.19 bitrate=N/A speed=13.4x    frame=11939 fps=321 q=-0.0 size=N/A time=00:08:17.95 bitrate=N/A speed=13.4x    frame=12100 fps=321 q=-0.0 size=N/A time=00:08:24.67 bitrate=N/A speed=13.4x    frame=12268 fps=321 q=-0.0 size=N/A time=00:08:31.67 bitrate=N/A speed=13.4x    frame=12386 fps=320 q=-0.0 size=N/A time=00:08:36.59 bitrate=N/A speed=13.3x    frame=12564 fps=320 q=-0.0 size=N/A time=00:08:44.02 bitrate=N/A speed=13.4x    frame=12742 fps=321 q=-0.0 size=N/A time=00:08:51.44 bitrate=N/A speed=13.4x    frame=12924 fps=321 q=-0.0 size=N/A time=00:08:59.03 bitrate=N/A speed=13.4x    frame=13091 fps=321 q=-0.0 size=N/A time=00:09:06.00 bitrate=N/A speed=13.4x    frame=13270 fps=321 q=-0.0 size=N/A time=00:09:13.46 bitrate=N/A speed=13.4x    frame=13441 fps=322 q=-0.0 size=N/A time=00:09:20.60 bitrate=N/A speed=13.4x    frame=13630 fps=322 q=-0.0 size=N/A time=00:09:28.48 bitrate=N/A speed=13.4x    frame=13822 fps=323 q=-0.0 size=N/A time=00:09:36.49 bitrate=N/A speed=13.5x    frame=13999 fps=323 q=-0.0 size=N/A time=00:09:43.87 bitrate=N/A speed=13.5x    frame=14161 fps=323 q=-0.0 size=N/A time=00:09:50.63 bitrate=N/A speed=13.5x    frame=14349 fps=323 q=-0.0 size=N/A time=00:09:58.47 bitrate=N/A speed=13.5x    frame=14532 fps=324 q=-0.0 size=N/A time=00:10:06.10 bitrate=N/A speed=13.5x    frame=14682 fps=323 q=-0.0 size=N/A time=00:10:12.36 bitrate=N/A speed=13.5x    frame=14862 fps=324 q=-0.0 size=N/A time=00:10:19.86 bitrate=N/A speed=13.5x    frame=15047 fps=324 q=-0.0 size=N/A time=00:10:27.58 bitrate=N/A speed=13.5x    frame=15187 fps=323 q=-0.0 size=N/A time=00:10:33.42 bitrate=N/A speed=13.5x    frame=15369 fps=324 q=-0.0 size=N/A time=00:10:41.01 bitrate=N/A speed=13.5x    frame=15555 fps=324 q=-0.0 size=N/A time=00:10:48.77 bitrate=N/A speed=13.5x    frame=15738 fps=325 q=-0.0 size=N/A time=00:10:56.40 bitrate=N/A speed=13.5x    frame=15924 fps=325 q=-0.0 size=N/A time=00:11:04.16 bitrate=N/A speed=13.6x    frame=16092 fps=325 q=-0.0 size=N/A time=00:11:11.17 bitrate=N/A speed=13.6x    frame=16251 fps=325 q=-0.0 size=N/A time=00:11:17.80 bitrate=N/A speed=13.5x    frame=16424 fps=325 q=-0.0 size=N/A time=00:11:25.01 bitrate=N/A speed=13.6x    frame=16617 fps=325 q=-0.0 size=N/A time=00:11:33.06 bitrate=N/A speed=13.6x    frame=16789 fps=326 q=-0.0 size=N/A time=00:11:40.24 bitrate=N/A speed=13.6x    frame=16960 fps=326 q=-0.0 size=N/A time=00:11:47.37 bitrate=N/A speed=13.6x    frame=17083 fps=325 q=-0.0 size=N/A time=00:11:52.50 bitrate=N/A speed=13.5x    frame=17246 fps=325 q=-0.0 size=N/A time=00:11:59.30 bitrate=N/A speed=13.5x    frame=17413 fps=325 q=-0.0 size=N/A time=00:12:06.26 bitrate=N/A speed=13.5x    frame=17566 fps=324 q=-0.0 size=N/A time=00:12:12.64 bitrate=N/A speed=13.5x    frame=17730 fps=324 q=-0.0 size=N/A time=00:12:19.48 bitrate=N/A speed=13.5x    frame=17907 fps=324 q=-0.0 size=N/A time=00:12:26.87 bitrate=N/A speed=13.5x    frame=18072 fps=324 q=-0.0 size=N/A time=00:12:33.75 bitrate=N/A speed=13.5x    frame=18230 fps=324 q=-0.0 size=N/A time=00:12:40.34 bitrate=N/A speed=13.5x    frame=18396 fps=324 q=-0.0 size=N/A time=00:12:47.26 bitrate=N/A speed=13.5x    frame=18575 fps=324 q=-0.0 size=N/A time=00:12:54.73 bitrate=N/A speed=13.5x    frame=18753 fps=325 q=-0.0 size=N/A time=00:13:02.15 bitrate=N/A speed=13.5x    frame=18927 fps=325 q=-0.0 size=N/A time=00:13:09.41 bitrate=N/A speed=13.5x    frame=19107 fps=325 q=-0.0 size=N/A time=00:13:16.92 bitrate=N/A speed=13.6x    frame=19270 fps=325 q=-0.0 size=N/A time=00:13:23.71 bitrate=N/A speed=13.6x    frame=19439 fps=325 q=-0.0 size=N/A time=00:13:30.76 bitrate=N/A speed=13.6x    frame=19624 fps=325 q=-0.0 size=N/A time=00:13:38.48 bitrate=N/A speed=13.6x    frame=19809 fps=325 q=-0.0 size=N/A time=00:13:46.20 bitrate=N/A speed=13.6x    frame=19994 fps=326 q=-0.0 size=N/A time=00:13:53.91 bitrate=N/A speed=13.6x    frame=20184 fps=326 q=-0.0 size=N/A time=00:14:01.84 bitrate=N/A speed=13.6x    frame=20375 fps=326 q=-0.0 size=N/A time=00:14:09.80 bitrate=N/A speed=13.6x    frame=20551 fps=327 q=-0.0 size=N/A time=00:14:17.14 bitrate=N/A speed=13.6x    frame=20719 fps=327 q=-0.0 size=N/A time=00:14:24.15 bitrate=N/A speed=13.6x    frame=20910 fps=327 q=-0.0 size=N/A time=00:14:32.12 bitrate=N/A speed=13.6x    frame=21055 fps=327 q=-0.0 size=N/A time=00:14:38.16 bitrate=N/A speed=13.6x    frame=21217 fps=326 q=-0.0 size=N/A time=00:14:44.96 bitrate=N/A speed=13.6x    frame=21389 fps=327 q=-0.0 size=N/A time=00:14:52.09 bitrate=N/A speed=13.6x    frame=21560 fps=327 q=-0.0 size=N/A time=00:14:59.23 bitrate=N/A speed=13.6x    frame=21701 fps=326 q=-0.0 size=N/A time=00:15:05.11 bitrate=N/A speed=13.6x    frame=21874 fps=326 q=-0.0 size=N/A time=00:15:12.32 bitrate=N/A speed=13.6x    frame=22025 fps=326 q=-0.0 size=N/A time=00:15:18.62 bitrate=N/A speed=13.6x    frame=22178 fps=326 q=-0.0 size=N/A time=00:15:25.00 bitrate=N/A speed=13.6x    frame=22345 fps=326 q=-0.0 size=N/A time=00:15:31.97 bitrate=N/A speed=13.6x    frame=22529 fps=326 q=-0.0 size=N/A time=00:15:39.64 bitrate=N/A speed=13.6x    frame=22695 fps=326 q=-0.0 size=N/A time=00:15:46.57 bitrate=N/A speed=13.6x    frame=22861 fps=326 q=-0.0 size=N/A time=00:15:53.49 bitrate=N/A speed=13.6x    frame=22996 fps=325 q=-0.0 size=N/A time=00:15:59.12 bitrate=N/A speed=13.6x    frame=23166 fps=325 q=-0.0 size=N/A time=00:16:06.21 bitrate=N/A speed=13.6x    frame=23338 fps=326 q=-0.0 size=N/A time=00:16:13.38 bitrate=N/A speed=13.6x    frame=23496 fps=325 q=-0.0 size=N/A time=00:16:19.97 bitrate=N/A speed=13.6x    frame=23675 fps=326 q=-0.0 size=N/A time=00:16:27.44 bitrate=N/A speed=13.6x    frame=23841 fps=326 q=-0.0 size=N/A time=00:16:34.36 bitrate=N/A speed=13.6x    frame=24005 fps=325 q=-0.0 size=N/A time=00:16:41.20 bitrate=N/A speed=13.6x    frame=24172 fps=325 q=-0.0 size=N/A time=00:16:48.17 bitrate=N/A speed=13.6x    frame=24338 fps=325 q=-0.0 size=N/A time=00:16:55.09 bitrate=N/A speed=13.6x    frame=24510 fps=325 q=-0.0 size=N/A time=00:17:02.27 bitrate=N/A speed=13.6x    frame=24677 fps=325 q=-0.0 size=N/A time=00:17:09.23 bitrate=N/A speed=13.6x    frame=24828 fps=325 q=-0.0 size=N/A time=00:17:15.53 bitrate=N/A speed=13.6x    frame=24985 fps=325 q=-0.0 size=N/A time=00:17:22.08 bitrate=N/A speed=13.6x    frame=25150 fps=325 q=-0.0 size=N/A time=00:17:28.96 bitrate=N/A speed=13.6x    frame=25298 fps=325 q=-0.0 size=N/A time=00:17:35.13 bitrate=N/A speed=13.5x    frame=25465 fps=325 q=-0.0 size=N/A time=00:17:42.10 bitrate=N/A speed=13.5x    frame=25623 fps=325 q=-0.0 size=N/A time=00:17:48.69 bitrate=N/A speed=13.5x    frame=25773 fps=324 q=-0.0 size=N/A time=00:17:54.94 bitrate=N/A speed=13.5x    frame=25956 fps=325 q=-0.0 size=N/A time=00:18:02.58 bitrate=N/A speed=13.5x    frame=26118 fps=325 q=-0.0 size=N/A time=00:18:09.33 bitrate=N/A speed=13.5x    frame=26300 fps=325 q=-0.0 size=N/A time=00:18:16.92 bitrate=N/A speed=13.5x    frame=26486 fps=325 q=-0.0 size=N/A time=00:18:24.68 bitrate=N/A speed=13.6x    frame=26667 fps=325 q=-0.0 size=N/A time=00:18:32.23 bitrate=N/A speed=13.6x    frame=26857 fps=325 q=-0.0 size=N/A time=00:18:40.16 bitrate=N/A speed=13.6x    frame=27029 fps=325 q=-0.0 size=N/A time=00:18:47.33 bitrate=N/A speed=13.6x    frame=27161 fps=325 q=-0.0 size=N/A time=00:18:52.84 bitrate=N/A speed=13.6x    frame=27342 fps=325 q=-0.0 size=N/A time=00:19:00.38 bitrate=N/A speed=13.6x    frame=27476 fps=325 q=-0.0 size=N/A time=00:19:05.97 bitrate=N/A speed=13.5x    frame=27642 fps=325 q=-0.0 size=N/A time=00:19:12.90 bitrate=N/A speed=13.5x    frame=27810 fps=325 q=-0.0 size=N/A time=00:19:19.90 bitrate=N/A speed=13.5x    frame=27989 fps=325 q=-0.0 size=N/A time=00:19:27.37 bitrate=N/A speed=13.6x    frame=28165 fps=325 q=-0.0 size=N/A time=00:19:34.71 bitrate=N/A speed=13.6x    frame=28353 fps=325 q=-0.0 size=N/A time=00:19:42.55 bitrate=N/A speed=13.6x    frame=28536 fps=325 q=-0.0 size=N/A time=00:19:50.18 bitrate=N/A speed=13.6x    frame=28714 fps=326 q=-0.0 size=N/A time=00:19:57.61 bitrate=N/A speed=13.6x    frame=28882 fps=326 q=-0.0 size=N/A time=00:20:04.62 bitrate=N/A speed=13.6x    frame=29048 fps=326 q=-0.0 size=N/A time=00:20:11.54 bitrate=N/A speed=13.6x    frame=29221 fps=326 q=-0.0 size=N/A time=00:20:18.75 bitrate=N/A speed=13.6x    frame=29385 fps=326 q=-0.0 size=N/A time=00:20:25.59 bitrate=N/A speed=13.6x    frame=29530 fps=325 q=-0.0 size=N/A time=00:20:31.64 bitrate=N/A speed=13.6x    frame=29676 fps=325 q=-0.0 size=N/A time=00:20:37.73 bitrate=N/A speed=13.6x    frame=29828 fps=325 q=-0.0 size=N/A time=00:20:44.07 bitrate=N/A speed=13.6x    frame=29974 fps=325 q=-0.0 size=N/A time=00:20:50.16 bitrate=N/A speed=13.5x    frame=30130 fps=325 q=-0.0 size=N/A time=00:20:56.67 bitrate=N/A speed=13.5x    frame=30298 fps=325 q=-0.0 size=N/A time=00:21:03.67 bitrate=N/A speed=13.5x    frame=30479 fps=325 q=-0.0 size=N/A time=00:21:11.22 bitrate=N/A speed=13.5x    frame=30641 fps=325 q=-0.0 size=N/A time=00:21:17.98 bitrate=N/A speed=13.5x    frame=30828 fps=325 q=-0.0 size=N/A time=00:21:25.78 bitrate=N/A speed=13.5x    frame=30998 fps=325 q=-0.0 size=N/A time=00:21:32.87 bitrate=N/A speed=13.6x    frame=31194 fps=325 q=-0.0 size=N/A time=00:21:41.04 bitrate=N/A speed=13.6x    frame=31356 fps=325 q=-0.0 size=N/A time=00:21:47.80 bitrate=N/A speed=13.6x    frame=31535 fps=325 q=-0.0 size=N/A time=00:21:55.27 bitrate=N/A speed=13.6x    frame=31701 fps=325 q=-0.0 size=N/A time=00:22:02.19 bitrate=N/A speed=13.6x    frame=31867 fps=325 q=-0.0 size=N/A time=00:22:09.11 bitrate=N/A speed=13.6x    frame=32013 fps=325 q=-0.0 size=N/A time=00:22:15.20 bitrate=N/A speed=13.6x    frame=32184 fps=325 q=-0.0 size=N/A time=00:22:22.34 bitrate=N/A speed=13.6x    frame=32357 fps=325 q=-0.0 size=N/A time=00:22:29.55 bitrate=N/A speed=13.6x    frame=32539 fps=325 q=-0.0 size=N/A time=00:22:37.14 bitrate=N/A speed=13.6x    frame=32680 fps=325 q=-0.0 size=N/A time=00:22:43.02 bitrate=N/A speed=13.6x    frame=32828 fps=325 q=-0.0 size=N/A time=00:22:49.20 bitrate=N/A speed=13.5x    frame=32993 fps=325 q=-0.0 size=N/A time=00:22:56.08 bitrate=N/A speed=13.5x    frame=33164 fps=325 q=-0.0 size=N/A time=00:23:03.21 bitrate=N/A speed=13.5x    frame=33315 fps=325 q=-0.0 size=N/A time=00:23:09.51 bitrate=N/A speed=13.5x    frame=33463 fps=324 q=-0.0 size=N/A time=00:23:15.68 bitrate=N/A speed=13.5x    frame=33606 fps=324 q=-0.0 size=N/A time=00:23:21.65 bitrate=N/A speed=13.5x    frame=33746 fps=324 q=-0.0 size=N/A time=00:23:27.48 bitrate=N/A speed=13.5x    frame=33849 fps=323 q=-0.0 size=N/A time=00:23:31.78 bitrate=N/A speed=13.5x    frame=33991 fps=323 q=-0.0 size=N/A time=00:23:37.70 bitrate=N/A speed=13.5x    frame=34144 fps=323 q=-0.0 size=N/A time=00:23:44.08 bitrate=N/A speed=13.5x    frame=34287 fps=323 q=-0.0 size=N/A time=00:23:50.05 bitrate=N/A speed=13.5x    frame=34401 fps=322 q=-0.0 size=N/A time=00:23:54.80 bitrate=N/A speed=13.4x    frame=34556 fps=322 q=-0.0 size=N/A time=00:24:01.27 bitrate=N/A speed=13.4x    [Parsed_ssim_16 @ 000001c68a2e0580] SSIM Y:0.994477 (22.577880) U:0.994289 (22.432647) V:0.993935 (22.171613) All:0.994355 (22.483323)
[out#0/null @ 000001c6827b8a00] video:14903KiB audio:271276KiB subtitle:0KiB other streams:0KiB global headers:0KiB muxing overhead: unknown
frame=34683 fps=322 q=-0.0 Lsize=N/A time=00:24:06.57 bitrate=N/A speed=13.4x    
